<svg fill="#0071CE" role="img" viewBox="0 0 24 24" xmlns="http://www.w3.org/2000/svg"><title>Brother</title><path d="M3.74 0C1.674 0 0 1.674 0 3.74v16.52C0 22.326 1.674 24 3.74 24h16.52C22.326 24 24 22.326 24 20.26V3.74C24 1.674 22.326 0 20.26 0zm4.83 5.478h3.252c2.19 0 3.479 1.068 3.479 2.85 0 1.176-.6 2.03-1.62 2.43 1.284.36 2.046 1.32 2.046 2.67 0 1.98-1.41 3.09-3.87 3.09H8.57zm2.13 4.5h.87c.96 0 1.5-.45 1.5-1.26s-.54-1.23-1.5-1.23h-.87zm0 4.62h1.02c1.05 0 1.65-.51 1.65-1.41s-.6-1.41-1.65-1.41h-1.02z"/></svg>